0
SECTION
2
HEADER
9
$INSUNITS
70
4
9
$ACADVER
1
AC1014
9
$HANDSEED
5
FFFF
0
ENDSEC
0
SECTION
2
TABLES
0
TABLE
2
VPORT
5
8
100
AcDbSymbolTable
0
ENDTAB
0
TABLE
2
LTYPE
5
5
100
AcDbSymbolTable
0
LTYPE
5
14
100
AcDbSymbolTableRecord
100
AcDbLinetypeTableRecord
2
BYBLOCK
70
0
0
LTYPE
5
15
100
AcDbSymbolTableRecord
100
AcDbLinetypeTableRecord
2
BYLAYER
70
0
0
ENDTAB
0
TABLE
2
LAYER
5
2
100
AcDbSymbolTable
70
2
0
LAYER
5
50
100
AcDbSymbolTableRecord
100
AcDbLayerTableRecord
2
0
70
0
6
CONTINUOUS
0
ENDTAB
0
TABLE
2
STYLE
5
3
100
AcDbSymbolTable
70
1
0
STYLE
5
11
100
AcDbSymbolTableRecord
100
AcDbTextStyleTableRecord
2
STANDARD
70
0
0
ENDTAB
0
TABLE
2
VIEW
5
6
100
AcDbSymbolTable
70
0
0
ENDTAB
0
TABLE
2
UCS
5
7
100
AcDbSymbolTable
70
0
0
ENDTAB
0
TABLE
2
APPID
5
9
100
AcDbSymbolTable
70
2
0
APPID
5
12
100
AcDbSymbolTableRecord
100
AcDbRegAppTableRecord
2
ACAD
70
0
0
ENDTAB
0
TABLE
2
DIMSTYLE
5
A
100
AcDbSymbolTable
70
1
0
ENDTAB
0
TABLE
2
BLOCK_RECORD
5
1
100
AcDbSymbolTable
70
1
0
BLOCK_RECORD
5
1F
100
AcDbSymbolTableRecord
100
AcDbBlockTableRecord
2
*MODEL_SPACE
0
BLOCK_RECORD
5
1B
100
AcDbSymbolTableRecord
100
AcDbBlockTableRecord
2
*PAPER_SPACE
0
ENDTAB
0
ENDSEC
0
SECTION
2
BLOCKS
0
BLOCK
5
20
100
AcDbEntity
100
AcDbBlockBegin
2
*MODEL_SPACE
0
ENDBLK
5
21
100
AcDbEntity
100
AcDbBlockEnd
0
BLOCK
5
1C
100
AcDbEntity
100
AcDbBlockBegin
2
*PAPER_SPACE
0
ENDBLK
5
1D
100
AcDbEntity
100
AcDbBlockEnd
0
ENDSEC
0
SECTION
2
ENTITIES
0
LWPOLYLINE
5
100
100
AcDbEntity
8
0
100
AcDbPolyline
90
6
70
1
43
0.0
10
217.40812822977705
20
-345.41354166666673
10
81.809169896443706
20
-267.12332687377932
10
81.809169896443706
20
-110.5693733851115
10
217.40812822977705
20
-32.279166666666669
10
353.00707041422532
20
-110.5693733851115
10
353.00707041422532
20
-267.14977874755863
0
LWPOLYLINE
5
101
100
AcDbEntity
8
0
100
AcDbPolyline
90
6
70
1
43
0.0
10
89.64083010355634
20
-262.59895833333337
10
217.40811208089198
20
-336.36480458577478
10
345.17541020711263
20
-262.59897448221852
10
345.17541020711269
20
-115.09375000000003
10
217.40812822977711
20
-41.327915859222422
10
89.64083010355634
20
-115.09375000000003
0
LWPOLYLINE
5
102
100
AcDbEntity
8
0
100
AcDbPolyline
90
10
70
1
43
0.0
10
217.40812500000004
20
-53.895625000000003
10
100.51520833333335
20
-121.36437500000001
10
100.51520833333335
20
-256.32833333333338
10
127.74083333333337
20
-272.04458333333343
10
127.74083333333336
20
-137.08062500000003
10
217.40812500000004
20
-85.328125000000028
10
307.04895833333342
20
-137.080625
10
307.04895833333342
20
-272.04458333333338
10
334.2745833333334
20
-256.32833333333338
10
334.2745833333334
20
-121.36437500000002
0
LWPOLYLINE
5
103
100
AcDbEntity
8
0
100
AcDbPolyline
90
12
70
1
43
0.0
10
268.94895833333339
20
-127.66145833333334
10
217.40812500000004
20
-157.42708333333334
10
165.84083333333331
20
-127.66145833333337
10
138.61520833333336
20
-143.37770833333335
10
203.78208333333336
20
-181.00145833333335
10
203.78208333333336
20
-284.53291666666672
10
203.78208333333336
20
-315.96541666666673
10
217.40812500000004
20
-323.79708333333338
10
231.00770833333337
20
-315.96541666666673
10
231.0077083333334
20
-284.53291666666678
10
231.0077083333334
20
-181.00145833333335
10
296.17458333333343
20
-143.37770833333335
0
ENDSEC
0
SECTION
2
OBJECTS
0
DICTIONARY
5
C
100
AcDbDictionary
3
ACAD_GROUP
350
D
3
ACAD_MLINESTYLE
350
17
0
DICTIONARY
5
D
100
AcDbDictionary
0
DICTIONARY
5
1A
330
C
100
AcDbDictionary
0
DICTIONARY
5
17
100
AcDbDictionary
0
ENDSEC
0
EOF
